<?xml version="1.0" encoding="UTF-8" standalone="no"?>
<svg width="154px" height="160px" viewBox="0 0 154 160" version="1.1" xmlns="http://www.w3.org/2000/svg" xmlns:xlink="http://www.w3.org/1999/xlink">
    <!-- Generator: Sketch 39.1 (31720) - http://www.bohemiancoding.com/sketch -->
    <title>禁止</title>
    <desc>Created with Sketch.</desc>
    <defs></defs>
    <g id="注册页面" stroke="none" stroke-width="1" fill="none" fill-rule="evenodd">
        <g id="服务号/非法登录提示" transform="translate(-297.000000, -328.000000)" fill="#999999">
            <g id="禁止" transform="translate(297.000000, 328.000000)">
                <g id="Group" transform="translate(0.101562, 0.507812)">
                    <path d="M150.601499,106.92279 C148.768941,102.269944 146.020005,98.1113639 142.35429,94.4454492 C138.648003,90.7395617 134.469037,87.9706391 129.816991,86.1376818 C128.1803,85.4929189 126.531818,84.9642773 124.872743,84.5463607 C118.994328,79.6003143 112.105799,75.650592 104.527937,72.774542 C111.846375,65.0541764 116.348322,54.6975982 116.348322,43.2309725 C116.348322,19.3975314 96.8131672,0.0700355469 72.7320941,0.0700355469 C48.6504215,0.0700355469 29.1154662,19.3975314 29.1154662,43.2361689 C29.1154662,54.7029945 33.6218109,65.1509107 41.0367836,72.8764729 C16.7570453,82.3702361 0.03718125,103.277261 0.03718125,133.251738 C0.03718125,150.024167 54.9341611,157.971179 97.2652605,154.245105 C98.584766,154.968814 99.948841,155.60958 101.358885,156.164803 C106.01173,157.997561 110.754115,158.914539 115.587638,158.914539 C120.421161,158.914539 125.164145,157.997561 129.816791,156.165203 C134.468637,154.332646 138.647803,151.563723 142.353691,147.858235 C146.019805,144.192121 148.768741,140.03354 150.601299,135.380895 C152.433856,130.728649 153.350635,125.985065 153.350635,121.151742 C153.350635,116.31782 152.433856,111.575435 150.601499,106.92279 L150.601499,106.92279 Z M91.834343,139.556464 C90.1061146,137.351759 88.7354439,134.974171 87.7227307,132.424699 C86.2567246,128.730604 85.5226223,124.953964 85.5226223,121.094181 C85.5226223,117.233399 86.2567246,113.45596 87.7227307,109.762864 C89.1899359,106.069368 91.3880455,102.757014 94.3204574,99.824802 C97.2530691,96.8913908 100.566622,94.691882 104.259519,93.2254764 C107.952815,91.7594703 111.730454,91.026967 115.590836,91.026967 C119.450819,91.026967 123.228258,91.7594703 126.920954,93.2254764 C129.471225,94.23779 131.848214,95.6092602 134.053319,97.3380881 L91.834343,139.556464 L91.834343,139.556464 Z M9.72980977,129.563439 C9.72980977,100.02007 30.4725461,80.0733936 58.3384531,73.6413545 C46.8036736,68.2725945 38.8078949,56.6652643 38.8078949,43.2361691 C38.8078949,24.6749537 53.9772102,9.66572988 72.7318945,9.66572988 C91.4865789,9.66572988 106.655694,24.6793506 106.655694,43.2361691 C106.655694,56.6652643 98.6597154,68.2725945 87.1209387,73.6413545 C95.9283672,75.6723775 104.019082,79.0600807 110.971168,83.6719537 C107.725369,84.071083 104.521141,84.8921264 101.358885,86.137682 C96.7062398,87.9708391 92.5474596,90.7199752 88.8811453,94.3852902 C85.1756576,98.0911777 82.4065352,102.269945 80.5737777,106.92279 C78.7404207,111.575435 77.8248416,116.31782 77.8248416,121.151543 C77.8248416,125.985066 78.7404209,130.72785 80.5737777,135.380695 C82.0783576,139.198907 84.214909,142.698334 86.9814334,145.879777 C51.5312684,147.661169 9.72980977,141.993612 9.72980977,129.563439 L9.72980977,129.563439 Z M143.514104,132.480661 C142.047698,136.173957 139.848589,139.486711 136.915578,142.420322 C133.983166,145.351135 130.670412,147.549845 126.976716,149.01665 C123.283421,150.483056 119.506381,151.216159 115.645999,151.216159 C111.785816,151.216159 108.008777,150.483056 104.314681,149.01665 C102.011843,148.10187 99.8565039,146.902284 97.848865,145.41749 L139.914545,103.351811 C141.399538,105.35945 142.599124,107.515188 143.514104,109.819226 C144.979511,113.510923 145.712813,117.288362 145.712414,121.148944 C145.712813,125.010526 144.979511,128.787165 143.514104,132.480661 L143.514104,132.480661 Z" id="Shape"></path>
                </g>
            </g>
        </g>
    </g>
</svg>